# xmcd
#
# Track frame offsets: 
#        150
#        13142
#        25065
#        36107
#        49592
#
# Disc length: 857 seconds
#
# Revision: 0
# Processed by: cddbd v1.5.2PL0 Copyright (c) Steve Scherf et al.
# Submitted via: ExactAudioCopyFreeDBPlugin 1.0
#
DISCID=33035705
DTITLE=Crown Lands - Mantra
DYEAR=2016
DGENRE=Electric Blues;Hillside
TTITLE0=Being Right
TTITLE1=Mantra
TTITLE2=Sweet Avalon
TTITLE3=One Good Reason
TTITLE4=Scott Fitzgerald
EXTD=
EXTT0=
EXTT1=
EXTT2=
EXTT3=
EXTT4=
PLAYORDER=
